<svg width="102" height="32" viewBox="0 0 102 32" fill="none" xmlns="http://www.w3.org/2000/svg">
<path d="M15.392 16.4C16.8853 16.3573 18.3253 16.3253 19.712 16.304C21.12 16.2827 22.4533 16.272 23.712 16.272C24.1813 16.272 24.48 16.4 24.608 16.656C24.736 16.912 24.8 17.2533 24.8 17.68C24.8 18.1067 24.7253 18.48 24.576 18.8C24.4267 19.0987 24.1493 19.2587 23.744 19.28C22.208 19.3867 20.5013 19.4827 18.624 19.568C16.768 19.632 14.8693 19.696 12.928 19.76C10.9867 19.824 9.06667 19.888 7.168 19.952C5.29067 19.9947 3.56267 20.0267 1.984 20.048C1.51467 20.048 1.22667 19.8667 1.12 19.504C1.01333 19.1413 0.96 18.768 0.96 18.384C0.96 17.9573 1.01333 17.5947 1.12 17.296C1.22667 16.9973 1.52533 16.8373 2.016 16.816C3.296 16.7733 4.61867 16.7307 5.984 16.688C7.34933 16.624 8.74667 16.5707 10.176 16.528V15.28C8.17067 15.088 6.656 14.6293 5.632 13.904C4.62933 13.1573 4.128 12.1653 4.128 10.928C4.128 10.3093 4.27733 9.70133 4.576 9.104C4.87467 8.50667 5.30133 8.05866 5.856 7.76C5.64267 7.76 5.38667 7.77067 5.088 7.792C4.81067 7.792 4.52267 7.792 4.224 7.792C3.94667 7.792 3.68 7.792 3.424 7.792C3.168 7.792 2.96533 7.792 2.816 7.792C2.34667 7.792 1.97333 7.664 1.696 7.408C1.41867 7.152 1.26933 6.61867 1.248 5.808C1.22667 4.4 1.71733 3.664 2.72 3.6C3.53067 3.55733 4.49067 3.51467 5.6 3.472C6.73067 3.42933 7.936 3.38667 9.216 3.344V2.928C9.216 2.58667 9.248 2.26667 9.312 1.968C9.376 1.648 9.504 1.38133 9.696 1.168C9.90933 0.933332 10.208 0.751998 10.592 0.623999C10.976 0.474666 11.488 0.389332 12.128 0.367998C12.768 0.346665 13.2907 0.389332 13.696 0.495998C14.1013 0.581332 14.4213 0.730665 14.656 0.943998C14.8907 1.136 15.0507 1.38133 15.136 1.68C15.2213 1.95733 15.264 2.26667 15.264 2.608V3.152C16.5653 3.10933 17.8027 3.07733 18.976 3.056C20.1707 3.03467 21.2373 3.01333 22.176 2.992C22.6667 2.97067 23.0293 3.09867 23.264 3.376C23.52 3.65333 23.6693 4.13333 23.712 4.816C23.7333 5.60533 23.6053 6.14933 23.328 6.448C23.072 6.74667 22.6987 6.91733 22.208 6.96C22.08 6.98133 21.888 7.00267 21.632 7.024C21.3973 7.024 21.1307 7.024 20.832 7.024C20.5547 7.024 20.256 7.03467 19.936 7.056C19.6373 7.056 19.36 7.06667 19.104 7.088C19.68 7.408 20.1493 7.86667 20.512 8.464C20.896 9.06133 21.088 9.73333 21.088 10.48C21.088 11.76 20.576 12.7947 19.552 13.584C18.5493 14.352 17.1627 14.8747 15.392 15.152V16.4ZM9.184 28.144C11.296 28.144 13.3867 28.1333 15.456 28.112C17.5253 28.0907 19.6053 28.08 21.696 28.08C22.1227 28.08 22.4 28.176 22.528 28.368C22.656 28.56 22.72 28.88 22.72 29.328C22.72 29.456 22.7093 29.616 22.688 29.808C22.688 30.0213 22.6453 30.224 22.56 30.416C22.496 30.608 22.3893 30.7787 22.24 30.928C22.112 31.0773 21.92 31.152 21.664 31.152C19.104 31.1947 16.5653 31.2267 14.048 31.248C11.5307 31.2907 9.01333 31.3333 6.496 31.376C5.57867 31.376 4.928 31.184 4.544 30.8C4.18133 30.4373 3.97867 29.9253 3.936 29.264C3.89333 28.6027 3.85067 28.0373 3.808 27.568C3.76533 27.0987 3.744 26.5333 3.744 25.872C3.744 25.5947 3.78667 25.392 3.872 25.264C3.95733 25.136 4.11733 25.0613 4.352 25.04C6.528 24.9547 8.69333 24.8693 10.848 24.784C13.0027 24.6987 15.1787 24.6027 17.376 24.496C17.376 24.304 17.376 24.176 17.376 24.112C17.3973 24.048 17.408 23.9093 17.408 23.696C15.1893 23.7387 12.9813 23.792 10.784 23.856C8.58667 23.8987 6.37867 23.9413 4.16 23.984C3.79733 23.984 3.54133 23.8667 3.392 23.632C3.24267 23.376 3.168 22.9707 3.168 22.416C3.168 22.0747 3.21067 21.744 3.296 21.424C3.40267 21.104 3.68 20.9333 4.128 20.912C5.64267 20.8693 7.12533 20.8267 8.576 20.784C10.0267 20.72 11.4667 20.6667 12.896 20.624C14.3253 20.56 15.7653 20.5067 17.216 20.464C18.6667 20.4 20.1493 20.3467 21.664 20.304C22.176 20.304 22.432 20.6347 22.432 21.296C22.4107 22.1067 22.3787 22.832 22.336 23.472C22.3147 24.0907 22.272 24.7947 22.208 25.584C22.144 26.5653 21.6533 27.0667 20.736 27.088L9.184 27.504V28.144ZM15.136 11.312C15.712 10.8427 16 10.2347 16 9.488C16 8.74133 15.7333 8.144 15.2 7.696C14.6667 7.248 13.8667 7.024 12.8 7.024C11.5413 7.024 10.6347 7.26933 10.08 7.76C9.52533 8.25067 9.248 8.86933 9.248 9.616C9.248 10.3413 9.51467 10.9173 10.048 11.344C10.6027 11.7707 11.4133 11.984 12.48 11.984C13.6747 11.984 14.56 11.76 15.136 11.312ZM41.3013 23.664C42.4533 23.6213 43.6159 23.5893 44.7893 23.568C45.9626 23.5467 47.1573 23.5253 48.3733 23.504C48.8426 23.504 49.2159 23.6533 49.4933 23.952C49.7706 24.2507 49.9093 24.6773 49.9093 25.232C49.9093 26.0213 49.7279 26.544 49.3653 26.8C49.0026 27.0773 48.5866 27.2373 48.1173 27.28C45.0026 27.6 41.9199 27.8453 38.8693 28.016C35.8186 28.208 32.6506 28.336 29.3653 28.4C28.7679 28.4 28.2986 28.24 27.9573 27.92C27.6159 27.6213 27.4453 27.0987 27.4453 26.352C27.4453 25.648 27.6053 25.1147 27.9253 24.752C28.2453 24.3893 28.6826 24.1973 29.2373 24.176C30.4106 24.1333 31.5413 24.08 32.6293 24.016C33.7386 23.952 34.8373 23.8987 35.9253 23.856V20.912C34.8586 20.9547 33.8773 20.9867 32.9813 21.008C32.1066 21.0293 31.3919 21.04 30.8373 21.04C29.1946 21.04 28.3093 20.2933 28.1813 18.8C28.1386 18.3947 28.1066 17.936 28.0853 17.424C28.0639 16.8907 28.0426 16.3467 28.0213 15.792C28.0213 15.216 28.0106 14.6507 27.9893 14.096C27.9893 13.52 27.9893 12.9867 27.9893 12.496C27.9893 11.8347 28.3199 11.472 28.9813 11.408C29.8346 11.344 30.8693 11.2693 32.0853 11.184C33.3013 11.0987 34.5706 11.0133 35.8933 10.928C37.2159 10.8427 38.5279 10.7573 39.8293 10.672C41.1519 10.5867 42.3253 10.512 43.3493 10.448L43.2853 7.952C42.2399 7.952 41.0879 7.96267 39.8293 7.984C38.5706 8.00533 37.3119 8.02667 36.0533 8.048C34.7946 8.06933 33.5893 8.09067 32.4373 8.112C31.2853 8.13333 30.3039 8.144 29.4933 8.144C28.9599 8.144 28.5546 8.00533 28.2773 7.728C28.0213 7.42933 27.8932 6.81067 27.8932 5.872C27.8932 5.424 27.9253 5.06133 27.9893 4.784C28.0746 4.50666 28.1813 4.29333 28.3093 4.144C28.4373 3.97333 28.5866 3.856 28.7573 3.792C28.9493 3.728 29.1519 3.68533 29.3653 3.664C30.6239 3.62133 32.0853 3.57867 33.7493 3.536C35.4346 3.472 37.1519 3.42933 38.9013 3.408C40.6506 3.36533 42.3359 3.33333 43.9573 3.312C45.5999 3.29067 47.0079 3.28 48.1813 3.28C48.4159 3.28 48.5973 3.36533 48.7253 3.536C48.8533 3.68533 48.9173 3.86666 48.9173 4.08C48.9173 5.488 48.9066 6.87467 48.8853 8.24C48.8853 9.60533 48.8853 10.9813 48.8853 12.368C48.8853 12.88 48.7679 13.2853 48.5333 13.584C48.3199 13.8827 47.9679 14.0533 47.4773 14.096C46.4106 14.16 45.2266 14.2347 43.9253 14.32C42.6453 14.4053 41.3439 14.4907 40.0213 14.576C38.7199 14.64 37.4719 14.7147 36.2773 14.8C35.0826 14.864 34.0693 14.9173 33.2373 14.96V16.048C33.2373 16.3467 33.2906 16.5493 33.3973 16.656C33.5039 16.7413 33.6959 16.784 33.9733 16.784C34.4426 16.7627 35.0399 16.7413 35.7653 16.72C36.5119 16.6987 37.3226 16.6773 38.1973 16.656C39.0719 16.6133 39.9786 16.5813 40.9173 16.56C41.8773 16.5387 42.7946 16.5173 43.6693 16.496C44.5439 16.4533 45.3439 16.432 46.0693 16.432C46.8159 16.4107 47.4239 16.4 47.8933 16.4C48.3839 16.4 48.7359 16.496 48.9493 16.688C49.1626 16.8587 49.2906 17.2747 49.3333 17.936C49.3759 18.6613 49.2693 19.184 49.0133 19.504C48.7786 19.824 48.4799 20.0053 48.1173 20.048C47.3706 20.1547 46.3893 20.2613 45.1733 20.368C43.9786 20.4533 42.6879 20.5493 41.3013 20.656V23.664ZM63.6065 13.2C63.7132 13.1787 63.8198 13.168 63.9265 13.168C64.0545 13.1467 64.1718 13.136 64.2785 13.136C64.2358 11.728 64.2145 10.3093 64.2145 8.88C64.2358 7.42933 64.2678 5.86133 64.3105 4.176C64.3318 3.70667 64.4278 3.36533 64.5985 3.152C64.7692 2.93867 65.0892 2.82133 65.5585 2.8C66.0278 2.77867 66.6145 2.768 67.3185 2.768C68.0438 2.74667 68.7798 2.736 69.5265 2.736C70.2732 2.736 70.9772 2.736 71.6385 2.736C72.3212 2.736 72.8545 2.736 73.2385 2.736C73.6012 2.736 73.8998 2.864 74.1345 3.12C74.3905 3.35467 74.5398 3.84533 74.5825 4.592C74.6465 6.04267 74.2092 6.832 73.2705 6.96C73.0572 7.00267 72.7798 7.03467 72.4385 7.056C72.1185 7.056 71.7665 7.06667 71.3825 7.088C70.9985 7.10933 70.6145 7.13067 70.2305 7.152C69.8678 7.152 69.5478 7.152 69.2705 7.152C69.2705 7.32267 69.2598 7.55733 69.2385 7.856C69.2385 8.15467 69.2278 8.464 69.2065 8.784C69.2065 9.104 69.1958 9.41333 69.1745 9.712C69.1745 9.98933 69.1745 10.192 69.1745 10.32C69.1745 10.576 69.2278 10.7573 69.3345 10.864C69.4625 10.9493 69.6118 10.992 69.7825 10.992C70.2305 10.992 70.7105 10.9813 71.2225 10.96C71.7558 10.9387 72.3532 10.9067 73.0145 10.864C73.3985 10.8427 73.7185 10.9493 73.9745 11.184C74.2518 11.3973 74.4118 11.8347 74.4545 12.496C74.4972 13.1787 74.3798 13.7227 74.1025 14.128C73.8465 14.512 73.5265 14.736 73.1425 14.8C72.6305 14.8853 72.0865 14.96 71.5105 15.024C70.9345 15.0667 70.3585 15.1093 69.7825 15.152C69.2278 15.1947 68.6838 15.2373 68.1505 15.28C67.6385 15.3013 67.1798 15.312 66.7745 15.312C66.7958 15.5467 66.8065 15.8027 66.8065 16.08C66.8065 16.336 66.8065 16.6133 66.8065 16.912C68.2358 16.8693 69.6118 16.8373 70.9345 16.816C72.2785 16.7947 73.5585 16.784 74.7745 16.784C75.2438 16.784 75.5425 16.976 75.6705 17.36C75.7985 17.7227 75.8625 18.1173 75.8625 18.544C75.8625 18.9707 75.7878 19.3867 75.6385 19.792C75.4892 20.1973 75.2118 20.4107 74.8065 20.432C73.2705 20.5387 71.5638 20.6347 69.6865 20.72C67.8305 20.784 65.9318 20.848 63.9905 20.912C62.0492 20.976 60.1292 21.04 58.2305 21.104C56.3532 21.1467 54.6252 21.1787 53.0465 21.2C52.8118 21.2 52.6198 21.136 52.4705 21.008C52.3425 20.88 52.2465 20.72 52.1825 20.528C52.1185 20.3147 52.0758 20.1013 52.0545 19.888C52.0332 19.6533 52.0225 19.44 52.0225 19.248C52.0225 19.0347 52.0332 18.8213 52.0545 18.608C52.0758 18.3733 52.1185 18.1707 52.1825 18C52.2678 17.808 52.3745 17.648 52.5025 17.52C52.6518 17.392 52.8438 17.328 53.0785 17.328C54.4012 17.2853 55.7772 17.2427 57.2065 17.2C58.6358 17.136 60.0865 17.0827 61.5585 17.04C61.5372 16.6987 61.5158 16.3787 61.4945 16.08C61.4945 15.7813 61.4945 15.5147 61.4945 15.28V15.056C60.9612 15.12 60.4065 15.184 59.8305 15.248C59.2545 15.2907 58.6998 15.3333 58.1665 15.376C57.6332 15.3973 57.1212 15.4187 56.6305 15.44C56.1612 15.4613 55.7558 15.472 55.4145 15.472C54.7958 15.472 54.3052 15.3013 53.9425 14.96C53.5798 14.5973 53.3772 14.096 53.3345 13.456C53.2918 12.816 53.2492 12.1013 53.2065 11.312C53.1638 10.5227 53.1318 9.72267 53.1105 8.912C53.0892 8.08 53.0785 7.28 53.0785 6.512C53.0785 5.72267 53.0785 5.01867 53.0785 4.4C53.0785 3.93067 53.1638 3.58933 53.3345 3.376C53.5265 3.16267 53.8572 3.03467 54.3265 2.992C54.7958 2.97067 55.3932 2.94933 56.1185 2.928C56.8652 2.90667 57.6225 2.896 58.3905 2.896C59.1585 2.87466 59.8945 2.864 60.5985 2.864C61.3025 2.864 61.8465 2.864 62.2305 2.864C62.6572 2.88533 62.9772 3.00267 63.1905 3.216C63.4038 3.408 63.5212 3.888 63.5425 4.656C63.5638 5.552 63.4678 6.16 63.2545 6.48C63.0412 6.8 62.7105 6.98133 62.2625 7.024C61.4732 7.10933 60.7478 7.184 60.0865 7.248C59.4252 7.29067 58.7638 7.33333 58.1025 7.376C58.1025 7.568 58.1025 7.81333 58.1025 8.112C58.1025 8.38933 58.0918 8.67733 58.0705 8.976C58.0705 9.27467 58.0705 9.56267 58.0705 9.84C58.0705 10.1173 58.0705 10.3307 58.0705 10.48C58.0705 10.736 58.1238 10.9173 58.2305 11.024C58.3372 11.1093 58.4865 11.152 58.6785 11.152C59.1052 11.152 59.6278 11.1413 60.2465 11.12C60.8652 11.0987 61.5158 11.0667 62.1985 11.024C62.5825 11.0027 62.9025 11.1093 63.1585 11.344C63.4145 11.5573 63.5638 11.9947 63.6065 12.656V13.2ZM68.9185 31.312C68.5772 31.056 68.3852 30.7147 68.3425 30.288C68.2998 29.5413 68.2678 28.8587 68.2465 28.24C68.2465 27.6427 68.2358 26.8747 68.2145 25.936C67.4465 25.9573 66.5078 25.9787 65.3985 26C64.2892 26.0427 63.1372 26.0747 61.9425 26.096C60.7478 26.1387 59.5852 26.16 58.4545 26.16C57.3238 26.1813 56.3532 26.1813 55.5425 26.16C55.2652 26.1387 54.9985 26.0533 54.7425 25.904C54.5078 25.7333 54.3692 25.4773 54.3265 25.136C54.2838 24.88 54.2518 24.592 54.2305 24.272C54.2305 23.952 54.2838 23.632 54.3905 23.312C54.4545 23.0987 54.5932 22.928 54.8065 22.8C55.0198 22.6507 55.2652 22.5653 55.5425 22.544C56.2252 22.5013 57.0145 22.4587 57.9105 22.416C58.8278 22.3733 59.7985 22.3413 60.8225 22.32C61.8465 22.2773 62.8918 22.2347 63.9585 22.192C65.0252 22.1493 66.0598 22.1173 67.0625 22.096C68.0652 22.0747 69.0038 22.0533 69.8785 22.032C70.7745 22.0107 71.5425 22 72.1825 22C72.5878 22 72.8652 22.096 73.0145 22.288C73.1638 22.48 73.2385 22.7893 73.2385 23.216C73.2385 23.856 73.2278 24.4427 73.2065 24.976C73.1852 25.488 73.1425 25.9893 73.0785 26.48C73.0358 26.9707 72.9825 27.472 72.9185 27.984C72.8758 28.496 72.8225 29.0613 72.7585 29.68C72.6945 30.32 72.5025 30.7893 72.1825 31.088C71.8625 31.3867 71.3292 31.568 70.5825 31.632C69.8145 31.696 69.2598 31.5893 68.9185 31.312ZM89.3878 13.2C89.4944 13.1787 89.6011 13.168 89.7078 13.168C89.8358 13.1467 89.9531 13.136 90.0598 13.136C90.0171 11.728 89.9958 10.3093 89.9958 8.88C90.0171 7.42933 90.0491 5.86133 90.0918 4.176C90.1131 3.70667 90.2091 3.36533 90.3798 3.152C90.5504 2.93867 90.8704 2.82133 91.3398 2.8C91.8091 2.77867 92.3958 2.768 93.0998 2.768C93.8251 2.74667 94.5611 2.736 95.3078 2.736C96.0544 2.736 96.7584 2.736 97.4198 2.736C98.1024 2.736 98.6358 2.736 99.0198 2.736C99.3824 2.736 99.6811 2.864 99.9158 3.12C100.172 3.35467 100.321 3.84533 100.364 4.592C100.428 6.04267 99.9904 6.832 99.0518 6.96C98.8384 7.00267 98.5611 7.03467 98.2198 7.056C97.8998 7.056 97.5478 7.06667 97.1638 7.088C96.7798 7.10933 96.3958 7.13067 96.0118 7.152C95.6491 7.152 95.3291 7.152 95.0518 7.152C95.0518 7.32267 95.0411 7.55733 95.0198 7.856C95.0198 8.15467 95.0091 8.464 94.9878 8.784C94.9878 9.104 94.9771 9.41333 94.9558 9.712C94.9558 9.98933 94.9558 10.192 94.9558 10.32C94.9558 10.576 95.0091 10.7573 95.1158 10.864C95.2438 10.9493 95.3931 10.992 95.5638 10.992C96.0118 10.992 96.4918 10.9813 97.0038 10.96C97.5371 10.9387 98.1344 10.9067 98.7958 10.864C99.1798 10.8427 99.4998 10.9493 99.7558 11.184C100.033 11.3973 100.193 11.8347 100.236 12.496C100.278 13.1787 100.161 13.7227 99.8838 14.128C99.6278 14.512 99.3078 14.736 98.9238 14.8C98.4118 14.8853 97.8678 14.96 97.2918 15.024C96.7158 15.0667 96.1398 15.1093 95.5638 15.152C95.0091 15.1947 94.4651 15.2373 93.9318 15.28C93.4198 15.3013 92.9611 15.312 92.5558 15.312C92.5771 15.5467 92.5878 15.8027 92.5878 16.08C92.5878 16.336 92.5878 16.6133 92.5878 16.912C94.0171 16.8693 95.3931 16.8373 96.7158 16.816C98.0598 16.7947 99.3398 16.784 100.556 16.784C101.025 16.784 101.324 16.976 101.452 17.36C101.58 17.7227 101.644 18.1173 101.644 18.544C101.644 18.9707 101.569 19.3867 101.42 19.792C101.27 20.1973 100.993 20.4107 100.588 20.432C99.0518 20.5387 97.3451 20.6347 95.4678 20.72C93.6118 20.784 91.7131 20.848 89.7718 20.912C87.8304 20.976 85.9104 21.04 84.0118 21.104C82.1344 21.1467 80.4064 21.1787 78.8278 21.2C78.5931 21.2 78.4011 21.136 78.2518 21.008C78.1238 20.88 78.0278 20.72 77.9638 20.528C77.8998 20.3147 77.8571 20.1013 77.8358 19.888C77.8144 19.6533 77.8038 19.44 77.8038 19.248C77.8038 19.0347 77.8144 18.8213 77.8358 18.608C77.8571 18.3733 77.8998 18.1707 77.9638 18C78.0491 17.808 78.1558 17.648 78.2838 17.52C78.4331 17.392 78.6251 17.328 78.8598 17.328C80.1824 17.2853 81.5584 17.2427 82.9878 17.2C84.4171 17.136 85.8678 17.0827 87.3398 17.04C87.3184 16.6987 87.2971 16.3787 87.2758 16.08C87.2758 15.7813 87.2758 15.5147 87.2758 15.28V15.056C86.7424 15.12 86.1878 15.184 85.6118 15.248C85.0358 15.2907 84.4811 15.3333 83.9478 15.376C83.4144 15.3973 82.9024 15.4187 82.4118 15.44C81.9424 15.4613 81.5371 15.472 81.1958 15.472C80.5771 15.472 80.0864 15.3013 79.7238 14.96C79.3611 14.5973 79.1584 14.096 79.1158 13.456C79.0731 12.816 79.0304 12.1013 78.9878 11.312C78.9451 10.5227 78.9131 9.72267 78.8918 8.912C78.8704 8.08 78.8598 7.28 78.8598 6.512C78.8598 5.72267 78.8598 5.01867 78.8598 4.4C78.8598 3.93067 78.9451 3.58933 79.1158 3.376C79.3078 3.16267 79.6384 3.03467 80.1078 2.992C80.5771 2.97067 81.1744 2.94933 81.8998 2.928C82.6464 2.90667 83.4038 2.896 84.1718 2.896C84.9398 2.87466 85.6758 2.864 86.3798 2.864C87.0838 2.864 87.6278 2.864 88.0118 2.864C88.4384 2.88533 88.7584 3.00267 88.9718 3.216C89.1851 3.408 89.3024 3.888 89.3238 4.656C89.3451 5.552 89.2491 6.16 89.0358 6.48C88.8224 6.8 88.4918 6.98133 88.0438 7.024C87.2544 7.10933 86.5291 7.184 85.8678 7.248C85.2064 7.29067 84.5451 7.33333 83.8838 7.376C83.8838 7.568 83.8838 7.81333 83.8838 8.112C83.8838 8.38933 83.8731 8.67733 83.8518 8.976C83.8518 9.27467 83.8518 9.56267 83.8518 9.84C83.8518 10.1173 83.8518 10.3307 83.8518 10.48C83.8518 10.736 83.9051 10.9173 84.0118 11.024C84.1184 11.1093 84.2678 11.152 84.4598 11.152C84.8864 11.152 85.4091 11.1413 86.0278 11.12C86.6464 11.0987 87.2971 11.0667 87.9798 11.024C88.3638 11.0027 88.6838 11.1093 88.9398 11.344C89.1958 11.5573 89.3451 11.9947 89.3878 12.656V13.2ZM94.6998 31.312C94.3584 31.056 94.1664 30.7147 94.1238 30.288C94.0811 29.5413 94.0491 28.8587 94.0278 28.24C94.0278 27.6427 94.0171 26.8747 93.9958 25.936C93.2278 25.9573 92.2891 25.9787 91.1798 26C90.0704 26.0427 88.9184 26.0747 87.7238 26.096C86.5291 26.1387 85.3664 26.16 84.2358 26.16C83.1051 26.1813 82.1344 26.1813 81.3238 26.16C81.0464 26.1387 80.7798 26.0533 80.5238 25.904C80.2891 25.7333 80.1504 25.4773 80.1078 25.136C80.0651 24.88 80.0331 24.592 80.0118 24.272C80.0118 23.952 80.0651 23.632 80.1718 23.312C80.2358 23.0987 80.3744 22.928 80.5878 22.8C80.8011 22.6507 81.0464 22.5653 81.3238 22.544C82.0064 22.5013 82.7958 22.4587 83.6918 22.416C84.6091 22.3733 85.5798 22.3413 86.6038 22.32C87.6278 22.2773 88.6731 22.2347 89.7398 22.192C90.8064 22.1493 91.8411 22.1173 92.8438 22.096C93.8464 22.0747 94.7851 22.0533 95.6597 22.032C96.5558 22.0107 97.3238 22 97.9638 22C98.3691 22 98.6464 22.096 98.7958 22.288C98.9451 22.48 99.0198 22.7893 99.0198 23.216C99.0198 23.856 99.0091 24.4427 98.9878 24.976C98.9664 25.488 98.9238 25.9893 98.8598 26.48C98.8171 26.9707 98.7638 27.472 98.6998 27.984C98.6571 28.496 98.6038 29.0613 98.5398 29.68C98.4758 30.32 98.2838 30.7893 97.9638 31.088C97.6438 31.3867 97.1104 31.568 96.3638 31.632C95.5958 31.696 95.0411 31.5893 94.6998 31.312Z" fill="black"/>
</svg>
